<svg width="387" height="310" viewBox="0 0 387 310" fill="none" xmlns="http://www.w3.org/2000/svg">
<path d="M237.787 54.0441C237.539 54.0725 236.743 54.172 236.017 54.2573C231.785 54.7263 226.862 56.3465 222.276 58.7626C217.797 61.136 214.432 63.3816 207.775 68.4554C202.658 72.3496 200.568 73.8277 198.178 75.2632C188.988 80.7491 175.921 84.6149 154.921 88.0685L152.158 88.5233L150.582 87.699C140.791 82.6252 130.556 78.8873 119.295 76.2722C115.842 75.4621 110.849 74.5383 108.175 74.1972C105.962 73.9272 101.482 73.8845 99.8531 74.1262C92.8413 75.1637 89.0521 79.0152 88.1667 86.0077C87.8657 88.2533 88.0251 92.9576 88.5209 96.7381C90.1853 109.771 93.6735 121.354 99.5875 133.619C101.889 138.395 102.332 139.702 102.332 141.692C102.314 143.582 101.5 145.074 99.375 147.064C98.9146 147.505 97.3033 148.897 95.8337 150.162C94.3463 151.427 92.4163 153.232 91.5487 154.156C85.7586 160.324 82.4298 167.757 81.2258 177.18C80.9247 179.511 80.9247 187.314 81.2258 189.9C81.9517 196.239 83.0318 201.37 85.2629 209.229C86.5909 213.848 86.7148 214.388 87.0335 216.193C87.3522 218.041 87.848 218.993 88.8573 219.76C89.4416 220.215 91.3185 221.025 91.4779 220.897C91.5133 220.883 91.2123 220.102 90.8227 219.163C84.9618 205.221 82.5538 187.996 84.714 175.546C85.8295 169.164 87.9011 164.261 91.1592 160.395C92.6465 158.619 93.9037 157.468 95.5681 156.373C102.952 151.541 112.531 151.37 123.757 155.876C136.7 161.078 145.518 169.051 147.926 177.749C148.387 179.426 148.475 183.078 148.104 184.869C146.669 191.748 140.95 196.907 132.823 198.669C130.68 199.138 126.218 199.195 123.615 198.797C115.506 197.546 108.423 192.984 104.705 186.617C104.262 185.835 103.607 184.755 103.288 184.187C102.155 182.268 100.278 181.43 99.3219 182.41C98.4366 183.291 99.2511 186.276 101.199 189.261C102.668 191.535 104.28 193.24 106.936 195.386C110.973 198.641 115.028 200.488 120.304 201.455C122.748 201.91 124.89 202.052 131.725 202.194C138.347 202.336 139.852 202.464 142.402 203.118C144.438 203.644 146.262 204.354 148.174 205.377C150.529 206.642 152.105 207.723 156.603 211.148C161.047 214.53 162.676 215.653 164.907 216.861C166.996 217.984 168.785 218.694 171.051 219.291C172.716 219.746 174.38 220.03 181.835 221.167C188.988 222.276 192.919 223.953 195.557 227.051L196.372 228.018L195.929 229.283C194.743 232.708 194.211 234.726 194.389 235.01C194.601 235.323 196.283 235.877 197.062 235.877C198.089 235.877 198.231 235.636 199.364 231.997C200.887 227.023 201.453 225.786 203.012 223.925C204.959 221.594 206.73 219.846 209.174 217.884C216.15 212.313 224.791 208.703 233.308 207.808C244.126 206.671 254.113 210.664 259.549 218.325C261.886 221.622 263.019 225.175 262.895 228.885L262.842 230.761L263.373 230.931C265.073 231.5 267.287 230.548 267.995 228.956C268.314 228.217 268.296 225.985 267.959 224.436C267.127 220.571 264.011 215.369 260.328 211.716C259.248 210.65 256.415 208.376 254.662 207.168L253.723 206.529L257.902 200.631C270.421 182.936 271.518 181.486 273.201 180.264C274.865 179.056 277.078 178.715 279.168 179.34C280.549 179.738 282.443 181.273 283.258 182.595C284.958 185.395 284.71 187.783 282.142 193.496C280.088 198.115 279.646 200.034 279.805 203.729C279.947 207.381 280.885 210.423 282.939 213.834C285.577 218.197 289.296 221.679 294.059 224.237C296.237 225.417 298.22 226.184 300.77 226.867C303.957 227.734 305.586 227.549 306.755 226.227L307.286 225.616L307.25 222.262C307.179 212.896 304.276 203.104 298.893 194.164C297.069 191.137 295.529 188.976 293.12 186.063C290.677 183.121 288.818 181.202 285.046 177.749C281.593 174.579 280.177 173.016 279.026 171.14C277.857 169.207 277.45 167.772 277.45 165.526C277.45 163.252 277.733 161.93 279.115 157.524C280.956 151.74 281.611 148.528 281.859 144.179C282.249 137.059 280.974 130.535 277.627 122.718C277.043 121.34 275.361 117.801 273.891 114.83C267.446 101.855 266.614 99.0262 265.852 87.3579C265.427 80.6496 265.091 77.6366 264.507 74.851C263.108 68.157 260.062 62.8842 255.512 59.2032C252.236 56.5739 248.836 55.0531 244.48 54.2999C243.241 54.0867 238.708 53.9162 237.787 54.0441ZM243.276 59.5727C250.678 61.7614 256.804 69.294 259.372 79.3421C261.284 86.8462 260.877 94.0946 258.15 100.49C257.566 101.897 257.477 102.707 257.884 103.333C258.026 103.546 258.894 104.541 259.814 105.536C269.801 116.365 272.953 122.633 274.865 135.538C275.945 142.8 275.821 149.182 274.422 157.283C273.626 161.902 272.032 167.288 270.97 168.951C270.846 169.164 270.084 170.856 269.287 172.717C268.508 174.579 267.464 176.811 266.986 177.678C263.55 183.832 258.132 189.005 250.306 193.567C246.163 195.997 242.391 197.703 234.671 200.645C216.097 207.723 208.465 209.869 199.293 210.593C196.195 210.835 189.307 210.679 186.261 210.309C179.71 209.485 172.238 207.737 164.217 205.15C156.107 202.535 147.767 199.195 147.023 198.286C146.598 197.76 146.829 197.333 147.997 196.523C148.582 196.111 149.467 195.329 149.98 194.761C150.494 194.192 151.273 193.354 151.698 192.885C152.654 191.862 153.557 190.355 153.947 189.19C154.354 187.996 154.478 185.054 154.23 183.348C153.911 181.344 153.274 179.014 152.176 175.873C150.016 169.633 148.316 166.663 145.341 163.82C144.81 163.309 143.978 162.485 143.5 161.973C143.004 161.461 142.119 160.608 141.517 160.083C139.817 158.59 139.817 158.292 141.534 156.7C142.154 156.117 143.305 155.051 144.102 154.312C147.98 150.702 150.99 147.007 156.054 139.617C160.959 132.482 162.711 127.252 163.933 116.138C164.641 109.828 164.588 107.17 163.703 104.356C162.924 101.911 160.817 98.1309 159.418 96.6528C158.55 95.7432 158.285 95.26 158.285 94.5351C158.285 93.9524 158.373 93.8103 159.082 93.1992C160.764 91.7495 163.969 90.8115 173.512 88.9497C180.241 87.6279 189.413 86.4341 194.318 86.2351C196.124 86.164 196.974 86.0646 197.452 85.8798C198.656 85.4108 200.781 83.4353 203.171 80.5644C204.428 79.0579 206.093 77.196 206.872 76.4428C208.713 74.6662 213.618 70.6583 215.867 69.0523C222.241 64.5612 231.466 60.2265 236.672 59.3026C238.602 58.9473 241.612 59.0752 243.276 59.5727ZM108.388 89.1344C110.654 89.4471 112.991 90.1151 115.435 91.1526C123.208 94.4357 126.661 97.605 127.652 102.423C128.219 105.095 127.121 107.895 124.394 110.808C122.217 113.139 116.922 116.863 114.372 117.872C111.309 119.08 109.007 118.014 106.015 113.992C103.43 110.51 101.5 107.113 100.313 103.944C99.5344 101.883 98.1533 96.9512 97.9054 95.4021C97.3919 92.0906 99.3219 89.6319 102.863 89.0776C104.138 88.8786 106.759 88.907 108.388 89.1344Z" fill="black"/>
<path d="M237.628 67.759C236.371 67.9296 233.803 68.626 232.528 69.1518C227.942 71.0137 223.055 74.7089 218.965 79.4416C216.539 82.2272 215.654 83.819 215.654 85.3966C215.654 87.2726 216.876 88.3243 220.523 89.5608C221.409 89.8593 224.985 91.2521 228.474 92.6591C231.979 94.0519 235.326 95.3595 235.91 95.53C239.044 96.468 241.966 96.5533 244.073 95.7716C247.986 94.2935 250.022 89.8877 249.775 83.3784C249.668 80.6781 249.403 79.2 248.252 75.0642C247.473 72.2786 247.278 71.7243 246.552 70.6015C245.047 68.2138 241.86 67.2047 237.628 67.759ZM238.761 72.6197C239.894 73.5719 240.549 75.2063 241.931 80.3938C242.763 83.5632 243.117 85.9793 243.152 88.7223C243.188 90.7973 243.152 91.0531 242.851 91.3232C242.196 91.9059 240.833 91.6642 236.92 90.3283C233.201 89.0492 230.156 87.5853 226.721 85.4392C223.834 83.6343 223.286 82.7673 224.206 81.4029C224.861 80.408 228.739 76.4286 230.404 75.0358C232.847 73.0034 235.007 72.0227 237.061 72.0085C237.964 72.0085 238.071 72.0512 238.761 72.6197Z" fill="black"/>
<path d="M238.425 135.325C237.84 135.509 236.477 136.149 235.415 136.717C234.334 137.3 232.759 138.139 231.926 138.579C230.191 139.475 228.651 140.74 228.031 141.749C227.411 142.772 227.358 144.222 227.907 145.046C228.544 146.012 229.447 146.51 230.616 146.595C231.555 146.652 231.625 146.638 232.192 146.14C232.599 145.799 233.042 145.117 233.538 144.108C234.759 141.55 235.645 140.697 238.141 139.759C240.142 138.991 241.275 139.162 243.347 140.541C243.914 140.924 244.64 141.337 244.941 141.479C245.684 141.791 247.437 141.791 248.199 141.464C249.42 140.939 249.828 139.631 249.137 138.537C248.606 137.712 246.959 136.59 245.33 135.964C242.568 134.898 240.337 134.685 238.425 135.325Z" fill="black"/>
<path d="M258.061 148.969C255.706 149.295 250.005 150.802 248.022 151.612C247.189 151.953 246.641 152.522 246.641 153.048C246.641 153.602 247.207 154.469 247.88 154.924C248.783 155.52 249.633 155.435 252.006 154.511C253.741 153.829 254.237 153.701 255.937 153.502C257.459 153.332 258.168 153.161 259.195 152.763C260.7 152.152 260.824 151.982 260.877 150.504C260.894 149.651 260.841 149.438 260.54 149.21C260.044 148.812 259.478 148.77 258.061 148.969Z" fill="black"/>
<path d="M168.732 152.536C168.484 152.564 167.811 152.664 167.226 152.749C164.694 153.104 162.109 154.611 160.339 156.757C157.753 159.912 157.559 161.149 159.524 162.215C160.303 162.655 161.401 162.641 162.198 162.215C162.57 162.016 163.065 161.504 163.508 160.836C164.429 159.457 166.802 157.482 168.218 156.942C170.254 156.16 172.043 156.188 174.929 157.07C176.859 157.652 177.762 157.695 178.842 157.24C180.329 156.601 180.436 155.691 179.161 154.526C178.081 153.531 177.16 153.232 174.043 152.82C172.397 152.593 169.422 152.436 168.732 152.536Z" fill="black"/>
<path d="M258.77 157.524C252.891 158.804 252.82 158.832 252.2 159.344C251.598 159.869 251.333 160.58 251.598 160.978C251.687 161.12 252.023 161.305 252.324 161.39C253.351 161.674 254.343 161.575 256.326 160.964C258.079 160.424 258.398 160.381 260.275 160.324C262.86 160.253 264.595 160.026 264.931 159.727C265.64 159.088 265.498 157.951 264.613 157.212C264.099 156.771 263.94 156.714 263.178 156.729C262.7 156.743 260.717 157.098 258.77 157.524Z" fill="black"/>
<path d="M209.51 158.064C204.888 158.732 200.78 160.836 198.479 163.693C197.363 165.085 197.115 166.336 197.753 167.445C198.496 168.724 200.09 169.463 203.383 170.017C208.111 170.813 208.979 171.069 209.262 171.68C209.598 172.376 210.36 177.209 210.36 178.644C210.36 180.008 210.289 180.307 209.705 181.728C208.678 184.229 207.527 185.395 205.349 186.205C201.931 187.456 197.682 186.603 194.087 183.945C193.184 183.291 192.175 182.666 191.839 182.581C190.9 182.325 190.103 182.695 189.519 183.661C189.112 184.343 189.059 184.556 189.13 185.423C189.271 187.029 190.404 188.209 192.724 189.147C195.522 190.298 198.514 190.753 202.356 190.639C207.42 190.497 209.988 189.46 211.617 186.944C212.98 184.841 214.432 183.59 215.902 183.277C216.539 183.135 216.769 183.149 217.779 183.448C218.823 183.76 219.266 183.789 222.382 183.832C224.277 183.86 226.862 183.817 228.119 183.732C230.882 183.547 231.732 183.277 233.343 182.069C233.963 181.614 235.237 180.719 236.158 180.094C238.407 178.587 238.602 178.274 239.062 175.389C239.275 174.082 239.363 172.902 239.292 172.533C239.151 171.751 238.389 171.026 237.468 170.813C236.53 170.586 234.724 170.6 234.016 170.841C232.918 171.211 232.776 171.481 232.635 173.385C232.475 175.318 231.979 177.109 231.395 177.777C230.864 178.374 229.607 178.985 228.137 179.355C226.561 179.753 223.427 179.781 221.674 179.411C219.001 178.843 216.876 177.592 216.291 176.256C216.15 175.887 215.937 174.935 215.813 174.139C215.441 171.453 215.99 169.633 218.097 166.549C220.151 163.579 220.488 162.925 220.576 161.703C220.63 160.694 220.612 160.58 220.116 159.955C219.089 158.676 216.114 157.851 212.644 157.866C211.617 157.866 210.218 157.965 209.51 158.064Z" fill="black"/>
<path d="M254.927 168.525C254.148 168.71 253.369 169.378 253.369 169.875C253.369 170.443 253.812 171.126 254.449 171.552C255.016 171.936 255.087 171.95 256.202 171.836C258.716 171.58 259.389 171.666 261.195 172.391C263.001 173.115 263.674 173.201 264.613 172.831C265.374 172.547 267.003 171.168 267.003 170.813C267.003 170.017 265.25 169.235 262.452 168.781C260.416 168.454 255.919 168.297 254.927 168.525Z" fill="black"/>
<path d="M166.872 170.372C163.845 171.211 160.073 173.044 158.409 174.48C157.417 175.333 156.886 176.228 157.098 176.668C157.293 177.081 158.108 177.223 159.117 177.066C160.321 176.867 168.059 174.281 169.139 173.712C170.343 173.073 170.484 171.325 169.404 170.387C168.926 169.989 168.271 169.989 166.872 170.372Z" fill="black"/>
<path d="M166.43 179.411C166.182 179.44 165.367 179.625 164.624 179.824C161.171 180.733 158.603 183.021 159.17 184.698C159.418 185.438 160.268 186.233 160.958 186.347C161.72 186.489 163.172 185.878 164.234 184.983C164.712 184.585 165.261 184.187 165.456 184.102C165.668 184.016 166.713 183.945 167.935 183.931C169.776 183.931 170.166 183.874 170.803 183.604C172.043 183.078 172.361 182.282 171.759 181.231C170.945 179.781 168.891 179.085 166.43 179.411Z" fill="black"/>
<path d="M168.643 188.536C167.828 188.834 166.766 189.63 164.624 191.591C162.552 193.453 162.286 194.306 163.455 195.23C165.031 196.495 168.076 195.813 169.723 193.809C170.343 193.07 170.803 192.856 172.273 192.601C174.734 192.188 175.46 191.719 175.46 190.526C175.46 189.715 175.141 189.389 173.955 188.976C173.123 188.692 170.626 188.266 169.812 188.266C169.564 188.266 169.033 188.394 168.643 188.536Z" fill="black"/>
<path d="M134.08 172.277C133.478 172.49 133.425 172.604 133.495 173.627C133.584 174.963 134.753 176.64 136.683 178.175C138.205 179.411 139.392 179.952 140.242 179.809C140.985 179.681 141.924 178.971 142.172 178.388C142.437 177.734 142.225 177.209 141.127 175.873C139.445 173.812 137.904 172.746 135.992 172.291C134.841 172.021 134.806 172.021 134.08 172.277Z" fill="black"/>
<path d="M122.358 176.271C122.128 176.398 121.844 176.725 121.703 176.981C121.26 177.834 121.366 178.09 122.535 178.914C123.775 179.767 124.288 180.421 124.89 181.828C125.687 183.689 126.324 184.087 128.219 183.917C129.689 183.789 130.025 183.505 129.901 182.524C129.724 181.188 128.963 179.838 127.812 178.829C126.076 177.308 123.881 176.043 123.013 176.043C122.871 176.043 122.588 176.143 122.358 176.271Z" fill="black"/>
<path d="M110.725 180.804C110.264 181.373 110.477 182.282 111.327 183.32C112.318 184.556 112.867 185.551 113.381 187.115C113.629 187.854 113.965 188.564 114.107 188.678C114.284 188.82 114.691 188.905 115.187 188.905C115.895 188.905 116.072 188.834 116.586 188.394C118.055 187.1 117.259 184.272 114.815 182.169C112.903 180.534 111.362 180.023 110.725 180.804Z" fill="black"/>
<line y1="-1" x2="169.718" y2="-1" transform="matrix(-0.556491 -0.830854 0.845197 -0.534455 107.116 175.704)" stroke="#2844D6" stroke-width="2"/>
<line y1="-1" x2="137.812" y2="-1" transform="matrix(0.961128 -0.276104 0.291101 0.956692 247.634 72.7437)" stroke="#2E4BE2" stroke-width="2"/>
<line y1="-1" x2="141.931" y2="-1" transform="matrix(0.981931 -0.189242 0.200009 0.979794 247.634 141.011)" stroke="#2C29C1" stroke-width="2"/>
<line y1="-1" x2="218.627" y2="-1" transform="matrix(-0.943022 0.33273 -0.350075 -0.936722 213.08 188.014)" stroke="#233CBD" stroke-width="2"/>
<rect x="0.5" y="0.5" width="386" height="309" stroke="black"/>
</svg>
